# xmcd
#
# Track frame offsets: 
#        150
#        22012
#        49550
#        66992
#        86562
#        104030
#        121185
#        141215
#        151492
#        170787
#        189427
#        211795
#        233697
#        258835
#        278287
#
# Disc length: 4175 seconds
#
# Revision: 0
# Processed by: cddbd v1.4PL0 Copyright (c) Steve Scherf et al.
# Submitted via: ExactAudioCopy v0.90b2
#
DISCID=cb104d0f
DTITLE=Wynonna - Sampler
DYEAR=1900
DGENRE=Country
TTITLE0=Somebody To Love You
TTITLE1=Heaven Help My Heart
TTITLE2=No One Else On Earth (Remix Version)
TTITLE3=My Strongest Weakness
TTITLE4=I Saw The Light
TTITLE5=Tell Me Why
TTITLE6=She Is His Only Need
TTITLE7=Live With Jesus
TTITLE8=Old Enough To Know Better
TTITLE9=Dance! Shout!
TTITLE10=Never Easy To Say Goodbye
TTITLE11=To Be Loved By You
TTITLE12=That Was Yesterday
TTITLE13=Father Sun
TTITLE14=Free Bird
EXTD=
EXTT0=
EXTT1=
EXTT2=
EXTT3=
EXTT4=
EXTT5=
EXTT6=
EXTT7=
EXTT8=
EXTT9=
EXTT10=
EXTT11=
EXTT12=
EXTT13=
EXTT14=
PLAYORDER=
